<svg width="500" height="500" viewBox="0 0 500 500" fill="none" xmlns="http://www.w3.org/2000/svg">
<mask id="mask0_26_308" style="mask-type:luminance" maskUnits="userSpaceOnUse" x="113" y="16" width="274" height="471">
<path d="M113.635 16H386.635V486.667H113.635V16Z" fill="white"/>
</mask>
<g mask="url(#mask0_26_308)">
<mask id="mask1_26_308" style="mask-type:luminance" maskUnits="userSpaceOnUse" x="114" y="16" width="273" height="470">
<path fill-rule="evenodd" clip-rule="evenodd" d="M249.365 213.542L358.536 150.734V176.87C321.443 198.365 284.349 219.859 247.255 241.359V215.224L248.943 214.38L249.365 213.958V213.542ZM219.016 423.031L247.255 407.016V273.396C282.661 253.161 318.068 232.505 353.479 212.276L386.776 193.307V97.2031C386.776 95.9375 385.932 94.6719 385.089 94.25L252.312 17.5364C251.052 16.6927 249.786 16.6927 248.943 17.5364L116.167 94.25C114.901 95.0937 114.479 95.9375 114.479 97.2031V411.651C114.479 412.917 115.323 414.177 116.167 414.599C117.432 415.443 118.693 415.443 119.536 414.599L191.615 373.292C192.88 372.448 193.302 371.604 193.302 370.344V143.146C193.302 141.88 194.146 140.62 194.99 140.198L219.859 125.865V298.682H219.437V392.26L115.323 450.849L114.479 485.417L219.437 424.297L219.016 423.031ZM247.255 108.583L248.521 107.74C249.786 106.896 251.052 106.896 251.891 107.74L308.797 140.62C310.062 141.458 310.484 142.302 310.484 143.568C310.484 144.833 309.641 146.099 308.797 146.521L246.833 182.349V108.583H247.255ZM340.833 126.708L252.312 75.7031C251.052 74.8594 249.786 74.8594 248.943 75.7031L167.167 122.911C165.906 123.755 165.484 124.599 165.484 125.865V353.057C165.484 354.323 164.641 355.589 163.797 356.01L148.198 365.281C146.937 366.125 145.672 366.125 144.828 365.281C143.562 364.443 143.141 363.599 143.141 362.333V112.797C143.141 111.531 143.984 110.271 144.828 109.849L249.786 49.151C251.052 48.3073 252.312 48.3073 253.156 49.151L358.115 109.849C359.38 110.687 359.802 111.531 359.802 112.797V116.172C359.802 117.432 358.958 118.698 358.115 119.12L345.469 126.286C344.203 127.13 342.937 127.13 342.094 126.286L340.833 126.708Z" fill="white"/>
</mask>
<g mask="url(#mask1_26_308)">
<path d="M114.479 16.6927V485.417H386.635V16.6927H114.479Z" fill="#07EECB"/>
</g>
</g>
</svg>
